<svg xmlns="http://www.w3.org/2000/svg" width="512" height="512" viewBox="0 0 512 512">
<defs><linearGradient id="bg" x1="0" y1="0" x2="1" y2="1">
<stop offset="0" stop-color="#150F0C"/><stop offset="0.55" stop-color="#1E1513"/><stop offset="1" stop-color="#3A2820"/>
</linearGradient></defs>
<rect width="512" height="512" rx="112" fill="url(#bg)"/>
<g transform="translate(46.00,43.79) scale(17.5)" fill="none" stroke="#C4A265" stroke-width="2" stroke-linecap="round" stroke-linejoin="round"><path d="M12 6.253v13m0-13C10.832 5.477 9.246 5 7.5 5S4.168 5.477 3 6.253v13C4.168 18.477 5.754 18 7.5 18s3.332.477 4.5 1.253m0-13C13.168 5.477 14.754 5 16.5 5c1.747 0 3.332.477 4.5 1.253v13C19.832 18.477 18.247 18 16.5 18c-1.746 0-3.332.477-4.5 1.253"/></g>
</svg>